<?xml version="1.0" standalone="no"?>
<!DOCTYPE svg PUBLIC "-//W3C//DTD SVG 20010904//EN"
 "http://www.w3.org/TR/2001/REC-SVG-20010904/DTD/svg10.dtd">
<svg version="1.0" xmlns="http://www.w3.org/2000/svg"
 width="483.000000pt" height="516.000000pt" viewBox="0 0 483.000000 516.000000"
 preserveAspectRatio="xMidYMid meet">

<g transform="translate(0.000000,516.000000) scale(0.100000,-0.100000)"
fill="#000000" stroke="none">
<path d="M2117 4920 c-331 -22 -694 -89 -952 -176 -459 -154 -643 -374 -491
-585 74 -101 255 -205 503 -288 715 -240 1808 -236 2496 9 338 121 518 268
518 424 0 63 -12 95 -57 157 -50 69 -141 133 -279 200 -253 120 -575 200 -985
244 -176 18 -578 27 -753 15z"/>
<path d="M538 3750 c-2 -511 -2 -516 23 -556 50 -81 185 -180 363 -264 258
-123 583 -206 1006 -257 205 -24 752 -25 970 0 655 74 1199 285 1352 526 l28
45 0 468 c0 305 -3 468 -10 468 -5 0 -10 -7 -10 -15 0 -25 -119 -143 -198
-196 -200 -133 -515 -242 -897 -308 -348 -61 -915 -74 -1290 -30 -486 56 -891
180 -1136 347 -80 54 -158 129 -182 177 -15 28 -16 -3 -19 -405z m469 -197
c42 -20 89 -81 104 -136 23 -87 -24 -167 -98 -167 -138 1 -236 199 -143 292
34 33 82 37 137 11z"/>
<path d="M540 2484 l0 -484 35 -15 c20 -8 183 -66 363 -129 360 -126 362 -126
881 -302 l364 -124 221 0 222 0 114 39 c63 22 333 113 600 204 482 164 772
265 883 307 l57 21 0 486 0 485 -72 -74 c-214 -218 -645 -397 -1133 -472 -482
-74 -955 -68 -1430 19 -458 83 -819 240 -1027 446 l-78 76 0 -483z m476 -123
c83 -50 126 -169 89 -241 -32 -62 -87 -75 -163 -39 -104 51 -144 217 -65 278
33 27 97 27 139 2z"/>
<path d="M540 1368 l0 -394 28 -45 c142 -222 582 -414 1322 -578 140 -31 344
-71 361 -71 5 0 9 159 9 414 l0 414 -82 30 c-46 17 -310 117 -588 222 -278
105 -552 209 -610 230 -141 51 -418 158 -430 165 -7 4 -10 -136 -10 -387z
m442 -102 c92 -20 164 -172 123 -260 -23 -47 -47 -59 -105 -54 -58 6 -102 36
-135 93 -54 92 -37 198 35 221 19 6 39 10 45 9 5 -2 22 -6 37 -9z"/>
<path d="M4095 1689 c-215 -83 -614 -235 -1112 -422 l-433 -162 0 -464 0 -464
64 7 c82 8 134 27 210 75 99 62 161 70 371 46 33 -4 57 -1 71 7 11 7 41 26 67
43 l47 30 2 268 3 269 90 33 c50 18 98 36 108 40 16 7 17 -8 17 -219 0 -141 4
-226 10 -226 16 0 256 98 323 132 166 83 315 209 336 284 7 25 11 173 11 412
0 348 -1 372 -17 371 -10 -1 -85 -28 -168 -60z m-1017 -1071 l-3 -193 -105
-37 c-58 -21 -106 -38 -107 -38 -2 0 -3 87 -3 194 l0 193 98 36 c53 19 103 36
110 36 10 1 12 -41 10 -191z"/>
</g>
</svg>
